<svg version="1.1" id="Layer_1" xmlns="http://www.w3.org/2000/svg" xmlns:xlink="http://www.w3.org/1999/xlink" x="0px" y="0px"
	 width="100%" viewBox="0 0 246 165" enable-background="new 0 0 246 165" xml:space="preserve">
<path fill="#FDFEFE" opacity="1.000000" stroke="none" 
	d="
M61.000000,166.000000 
	C41.012989,166.000000 21.025976,166.000000 1.019482,166.000000 
	C1.019482,111.048714 1.019482,56.097412 1.019482,1.073057 
	C82.897987,1.073057 164.796066,1.073057 246.847076,1.073057 
	C246.847076,55.999691 246.847076,110.999786 246.847076,166.000000 
	C234.587997,166.000000 222.262665,166.000000 209.379303,165.605560 
	C204.850876,164.739380 200.889999,163.981201 196.908325,163.848892 
	C184.288177,163.429520 171.660248,163.243866 158.598877,162.969833 
	C156.416992,163.035934 154.671570,163.100037 152.953140,163.116257 
	C152.980133,163.068375 153.025070,162.968079 152.932831,162.573334 
	C152.325302,161.820465 151.813187,161.155472 151.294250,161.150085 
	C142.998154,161.064316 134.700439,161.009430 126.405556,161.124969 
	C125.579910,161.136475 124.770355,162.303238 123.873566,163.204926 
	C123.700233,163.639572 123.606674,163.803116 123.174103,163.905334 
	C120.026436,161.464417 117.195473,158.510300 115.007423,164.047760 
	C111.010674,163.329025 107.277328,162.005539 103.584595,162.110535 
	C90.173691,162.491867 76.774467,163.319092 63.378624,164.110016 
	C62.551434,164.158829 61.791321,165.343689 61.000000,166.000000 
M201.000504,96.999748 
	C201.000504,96.999748 200.974808,96.983345 201.450668,96.781769 
	C201.608337,96.486809 201.766006,96.191856 201.966064,95.983948 
	C201.966064,95.983948 201.877411,95.945068 202.477798,95.600105 
	C203.310623,94.071335 204.143448,92.542564 205.393173,90.576591 
	C206.203629,89.692719 207.014084,88.808846 208.511185,87.740921 
	C209.989960,85.778328 211.468735,83.815742 213.462967,81.515167 
	C214.214142,80.123734 214.965302,78.732307 216.074158,76.729568 
	C217.009323,75.751175 217.944489,74.772789 219.098389,73.162926 
	C222.303146,69.021324 225.507904,64.879723 229.144485,60.180061 
	C211.764282,60.180061 195.227722,60.180061 178.667786,60.180061 
	C179.832138,64.760773 180.982681,69.287186 182.312057,74.568474 
	C182.200699,78.802917 181.930389,83.042809 182.075439,87.268456 
	C182.118637,88.527023 183.326797,89.745605 184.003998,90.997246 
	C184.003998,90.997246 184.019104,90.993156 183.996307,91.709183 
	C183.986221,92.424797 183.976135,93.140404 183.509766,94.154594 
	C183.265091,94.423180 183.020432,94.691772 182.070984,95.149345 
	C181.727448,96.788467 181.383911,98.427589 181.000443,100.543861 
	C181.000443,100.543861 180.827438,100.990318 180.408936,101.308609 
	C180.332230,101.641434 180.255508,101.974266 180.126877,102.669434 
	C180.126877,102.669434 179.939224,102.983727 179.260010,103.101128 
	C178.837997,104.076790 178.415985,105.052460 177.980530,106.627861 
	C178.273178,107.101540 178.565826,107.575218 178.933609,108.018517 
	C178.933609,108.018517 178.940277,108.099289 178.968323,108.729225 
	C178.944260,109.568222 178.920212,110.407219 178.145096,111.456215 
	C176.676254,112.330032 175.003845,112.984566 173.779221,114.121445 
	C170.862320,116.829361 168.411545,120.082611 165.325150,122.557770 
	C144.185745,139.510696 113.517807,136.427048 95.954529,115.644226 
	C93.628426,112.891724 91.318741,110.451157 87.349930,111.005142 
	C84.475281,111.406380 81.621346,111.956085 78.831902,112.427139 
	C80.196426,114.734108 81.667854,117.221832 82.843681,120.386681 
	C79.245407,125.458214 79.245407,125.458214 80.169380,127.751785 
	C82.260025,126.449883 84.350662,125.147980 86.835739,124.017685 
	C87.014442,124.259781 87.091652,124.530785 86.949219,125.535736 
	C86.424629,126.134293 85.978569,126.832787 85.363464,127.316170 
	C78.046791,133.065933 78.130524,136.309311 85.774399,141.183014 
	C85.515961,142.788467 85.257523,144.393921 84.264168,145.991699 
	C78.951523,144.250397 75.643494,141.002350 76.081429,134.279312 
	C76.701118,133.012268 77.454018,131.783157 77.834290,130.447922 
	C77.915718,130.162018 76.646790,129.491516 75.561157,129.215469 
	C75.287605,129.415390 75.099586,129.676819 74.362289,130.338577 
	C73.907684,131.891983 73.453087,133.445374 73.280037,135.647903 
	C72.598419,141.361252 76.398842,144.776199 79.855835,148.323349 
	C82.627167,151.166946 85.434441,151.837204 88.674568,147.899658 
	C92.830833,144.152313 96.987099,140.404953 101.840546,136.855850 
	C114.822662,144.238373 128.654160,147.421539 143.516144,144.953857 
	C164.195663,141.520218 179.647827,130.743896 189.750076,111.552620 
	C190.473236,110.344864 191.196381,109.137108 191.956696,108.000313 
	C191.956696,108.000313 191.941269,107.924507 192.424377,107.802238 
	C192.733276,107.620918 192.912399,107.352867 193.145157,106.558289 
	C193.300781,106.263069 193.534760,106.056702 194.397369,105.737732 
	C194.632263,105.226089 194.867157,104.714447 195.188934,103.661667 
	C195.464874,103.443535 195.740799,103.225403 196.481934,102.832916 
	C196.774918,102.636368 196.949142,102.363869 196.998718,101.999664 
	C196.998718,101.999664 197.014542,102.003616 197.476578,101.792442 
	C197.630051,101.500534 197.783524,101.208633 197.966110,101.009407 
	C197.966110,101.009407 197.911926,100.927795 198.611664,100.890816 
	C199.090622,99.950653 199.569595,99.010490 200.002670,98.009132 
	C200.002670,98.009132 200.074966,98.034119 200.516144,97.817268 
	C200.788773,97.601387 200.944077,97.320595 201.000504,96.999748 
M55.054703,82.539780 
	C55.197411,82.791519 55.409882,82.949333 56.024433,83.263039 
	C56.024433,83.263039 56.170452,83.652298 56.248596,84.236061 
	C56.549198,84.468414 56.849800,84.700760 57.709385,85.315277 
	C59.662460,87.210480 61.460579,90.502785 63.597569,90.739807 
	C70.094597,91.460426 76.722534,91.000885 83.682312,91.000885 
	C83.444908,85.903664 83.233803,81.370972 83.095016,76.238411 
	C83.384636,75.494438 83.674255,74.750458 84.277611,73.529037 
	C84.529289,73.016624 84.780975,72.504204 85.375092,71.860489 
	C85.447792,71.763519 85.602562,71.630447 85.578613,71.575989 
	C85.488098,71.370201 85.339554,71.189926 85.186684,70.440041 
	C85.440712,69.950844 85.694740,69.461655 86.504356,68.542694 
	C86.597137,67.867607 86.689919,67.192513 86.766701,66.209183 
	C86.766701,66.209183 86.997498,66.004227 87.519745,65.627701 
	C87.645172,65.017876 87.770592,64.408058 87.925392,63.366451 
	C87.925392,63.366451 88.159164,63.002239 88.582611,62.711971 
	C88.676895,62.394104 88.771179,62.076237 88.864655,60.917999 
	C88.039459,60.594097 87.215210,59.990498 86.388931,59.987709 
	C70.899734,59.935375 55.410278,59.949871 39.920963,59.984333 
	C39.540302,59.985176 39.160500,60.373093 38.650032,60.651531 
	C41.216129,64.143837 43.660538,67.470543 46.207912,71.330292 
	C46.485958,71.547401 46.764004,71.764519 46.995869,71.995979 
	C46.995869,71.995979 47.022526,71.955574 47.139370,72.438545 
	C47.309174,72.748108 47.565350,72.945709 48.348766,73.262718 
	C48.635612,73.447968 48.852943,73.694504 49.408897,74.592697 
	C50.651928,76.361031 51.894962,78.129372 53.037392,79.968002 
	C53.037392,79.968002 53.096310,79.860336 53.196510,80.378838 
	C53.470646,80.583138 53.744781,80.787430 53.998436,80.999710 
	C53.998436,80.999710 54.010014,80.980324 54.119152,81.457726 
	C54.281105,81.765778 54.530197,81.964722 54.960686,82.059860 
	C54.960686,82.059860 54.935123,82.150734 55.054703,82.539780 
M67.069969,97.557945 
	C67.329826,97.782295 67.589691,98.006645 68.124916,98.842758 
	C74.131561,108.052994 78.166542,109.769051 87.992905,107.195496 
	C86.985100,104.118439 85.979988,101.049591 85.074486,97.142250 
	C84.310593,96.062088 83.588135,94.083168 82.776176,94.045738 
	C76.940125,93.776718 71.085907,93.901772 64.062881,93.901772 
	C65.683342,95.678375 66.309456,96.364830 66.995308,97.000916 
	C66.995308,97.000916 66.939781,97.050720 67.069969,97.557945 
M122.925072,95.651978 
	C122.972977,96.108101 123.020889,96.564224 122.818474,97.716072 
	C123.216476,100.439568 123.614487,103.163063 124.890007,106.069458 
	C126.785645,106.069458 128.681290,106.069458 131.101852,106.069458 
	C131.101852,101.835228 131.101852,98.302696 131.101852,94.832100 
	C134.762619,94.619141 137.882858,94.437637 141.791611,94.557930 
	C146.345428,93.501511 147.785492,96.907303 149.540146,99.922096 
	C153.576385,106.857086 153.590775,106.848709 162.723969,105.615074 
	C160.348251,101.461807 158.087021,97.508690 155.464157,92.923363 
	C156.614624,92.026695 158.005432,91.285538 158.932678,90.161858 
	C163.442810,84.696327 164.237213,78.470840 162.048462,71.878967 
	C160.365646,66.810814 157.026642,62.668148 151.594727,62.343639 
	C142.190582,61.781830 132.728622,62.187740 123.185654,62.187740 
	C123.185654,65.614082 123.185654,68.644966 123.185654,71.981232 
	C131.847534,71.981232 140.148254,72.040337 148.447556,71.957222 
	C152.842087,71.913223 154.974930,74.162155 154.998459,78.307358 
	C155.022171,82.489601 152.798737,84.709908 148.465714,84.714676 
	C144.645859,84.718880 140.826172,84.878181 136.239609,84.734909 
	C131.856491,84.734909 127.473373,84.734909 123.098557,84.734909 
	C123.098557,88.494263 123.098557,91.737587 122.925072,95.651978 
M197.700348,38.879379 
	C200.403610,37.277599 202.378494,34.853970 200.295700,32.048531 
	C197.884903,28.801281 194.916016,25.578966 191.465439,23.623095 
	C188.954269,22.199701 184.313339,21.470020 182.305801,22.861111 
	C178.156036,25.736633 175.129776,30.233543 170.932739,33.829269 
	C158.903366,25.338657 145.532166,21.350784 130.821594,22.006811 
	C120.741112,22.456358 111.436653,25.694082 101.672714,29.990999 
	C100.681190,25.793768 99.689659,21.596537 98.418816,16.216965 
	C95.786736,19.152592 93.444366,21.935663 90.919792,24.542276 
	C86.767532,28.829456 82.542038,33.048470 78.259026,37.205143 
	C75.895981,39.498486 75.520897,43.380764 70.910210,44.057835 
	C67.833611,44.509628 67.173676,49.998058 69.116173,52.570221 
	C71.839592,56.176453 74.280312,55.182533 76.658752,52.169579 
	C77.680161,50.875683 78.688049,49.536514 79.920616,48.470634 
	C80.194824,48.233509 81.389336,49.060616 82.028358,50.069218 
	C80.965271,51.979149 79.902191,53.889080 78.501625,56.405327 
	C82.791779,56.405327 86.124550,56.676350 89.380898,56.294933 
	C91.097954,56.093819 93.186745,55.167828 94.251060,53.867813 
	C115.804619,27.541056 152.538498,27.531483 174.028748,53.952347 
	C176.062973,56.453285 186.550583,57.602886 189.031036,55.527721 
	C189.255554,55.339886 188.996429,54.573967 189.261978,53.407921 
	C190.287354,50.222065 190.943680,47.332561 185.328369,48.865650 
	C185.240936,48.532169 185.153503,48.198685 185.363037,47.238911 
	C187.733414,44.181599 189.922241,40.955162 192.548325,38.136051 
	C193.927109,36.655930 196.093155,35.784847 196.434998,39.071877 
	C196.112610,39.375450 195.790207,39.679020 195.467804,39.982594 
	C195.676514,40.163509 195.885239,40.344425 196.093964,40.525333 
	C196.395233,40.016087 196.696487,39.506844 197.700348,38.879379 
M179.744675,143.990753 
	C187.572250,140.754745 192.156448,133.621368 197.721344,127.937057 
	C199.969208,125.640976 198.567047,119.771545 198.825928,115.528259 
	C198.375153,115.257332 197.924377,114.986412 197.473602,114.715485 
	C195.212448,117.413284 193.175888,120.347649 190.639511,122.755531 
	C186.438797,126.743462 181.705124,130.182693 177.631042,134.285172 
	C175.953659,135.974243 175.403580,138.782791 174.893890,139.885498 
	C171.935242,142.053589 169.040070,143.311722 167.655045,145.517883 
	C166.840164,146.815933 168.028564,149.854980 169.096329,151.645645 
	C169.622314,152.527756 172.643738,153.125107 173.287384,152.521027 
	C175.784836,150.177063 179.830307,148.620987 179.000000,144.000000 
	C179.000000,144.000000 178.998779,144.001221 179.744675,143.990753 
M108.967392,92.492004 
	C108.967392,96.920464 108.967392,101.348923 108.967392,105.810867 
	C111.951691,105.810867 114.337563,105.810867 116.766464,105.810867 
	C116.766464,91.144005 116.766464,76.791016 116.766464,62.365105 
	C114.081795,62.365105 111.702858,62.365105 108.967392,62.365105 
	C108.967392,72.293076 108.967392,81.894180 108.967392,92.492004 
M192.705978,42.564541 
	C192.989700,42.293797 193.273422,42.023052 193.557144,41.752312 
	C193.444916,41.634960 193.241302,41.409382 193.233627,41.415859 
	C192.934479,41.668430 192.653229,41.942169 192.705978,42.564541 
z"/>
<path fill="#E1E1E1" opacity="1.000000" stroke="none" 
	d="
M61.468658,166.000000 
	C61.791321,165.343689 62.551434,164.158829 63.378624,164.110016 
	C76.774467,163.319092 90.173691,162.491867 103.584595,162.110535 
	C107.277328,162.005539 111.010674,163.329025 115.007423,164.047760 
	C117.195473,158.510300 120.026436,161.464417 123.498711,164.024918 
	C124.441559,164.803879 124.720779,165.401932 125.000000,166.000000 
	C117.979050,166.000000 110.958107,166.000000 103.392776,165.602936 
	C98.772621,163.586105 94.727127,162.418015 91.000000,166.000000 
	C81.312439,166.000000 71.624878,166.000000 61.468658,166.000000 
z"/>
<path fill="#E1E1E1" opacity="1.000000" stroke="none" 
	d="
M159.035339,162.967834 
	C171.660248,163.243866 184.288177,163.429520 196.908325,163.848892 
	C200.889999,163.981201 204.850876,164.739380 208.910645,165.605560 
	C199.312439,166.000000 189.624878,166.000000 179.394318,165.623398 
	C176.371353,163.713348 173.923141,162.468658 172.000000,166.000000 
	C167.975449,166.000000 163.950912,166.000000 159.484024,165.621674 
	C159.039566,164.484848 159.037460,163.726334 159.035339,162.967834 
z"/>
<path fill="#E1E1E1" opacity="1.000000" stroke="none" 
	d="
M123.953323,162.933823 
	C124.770355,162.303238 125.579910,161.136475 126.405556,161.124969 
	C134.700439,161.009430 142.998154,161.064316 151.294250,161.150085 
	C151.813187,161.155472 152.325302,161.820465 152.500519,162.613403 
	C148.541061,163.368393 144.906204,163.579636 141.313690,164.089264 
	C140.469101,164.209061 139.767410,165.336243 139.000000,166.000000 
	C137.611115,166.000000 136.222214,166.000000 134.433563,165.589935 
	C132.968796,164.475449 131.972092,163.340149 130.824249,163.158157 
	C128.578522,162.802109 126.248474,162.978073 123.953323,162.933823 
z"/>
<path fill="#BBBBBB" opacity="1.000000" stroke="none" 
	d="
M139.464645,166.000000 
	C139.767410,165.336243 140.469101,164.209061 141.313690,164.089264 
	C144.906204,163.579636 148.541061,163.368393 152.592773,163.008148 
	C153.025070,162.968079 152.980133,163.068375 152.972900,163.467072 
	C152.977112,164.577194 152.988556,165.288589 153.000000,166.000000 
	C148.643097,166.000000 144.286194,166.000000 139.464645,166.000000 
M150.375366,164.517609 
	C150.161423,164.462341 149.947479,164.407089 149.733536,164.351822 
	C149.871262,164.487900 150.009003,164.623978 150.375366,164.517609 
z"/>
<path fill="#BBBBBB" opacity="1.000000" stroke="none" 
	d="
M123.873566,163.204926 
	C126.248474,162.978073 128.578522,162.802109 130.824249,163.158157 
	C131.972092,163.340149 132.968796,164.475449 134.016907,165.589935 
	C131.299988,166.000000 128.599976,166.000000 125.449982,166.000000 
	C124.720779,165.401932 124.441559,164.803879 123.837730,164.086227 
	C123.606674,163.803116 123.700233,163.639572 123.873566,163.204926 
z"/>
<path fill="#CECECE" opacity="1.000000" stroke="none" 
	d="
M91.460632,166.000000 
	C94.727127,162.418015 98.772621,163.586105 102.924194,165.602936 
	C99.307091,166.000000 95.614182,166.000000 91.460632,166.000000 
z"/>
<path fill="#C4C4C4" opacity="1.000000" stroke="none" 
	d="
M153.428467,166.000000 
	C152.988556,165.288589 152.977112,164.577194 152.945908,163.514954 
	C154.671570,163.100037 156.416992,163.035934 158.598877,162.969833 
	C159.037460,163.726334 159.039566,164.484848 159.020844,165.621674 
	C157.285645,166.000000 155.571289,166.000000 153.428467,166.000000 
z"/>
<path fill="#CFCFCF" opacity="1.000000" stroke="none" 
	d="
M172.437500,166.000000 
	C173.923141,162.468658 176.371353,163.713348 178.925659,165.623398 
	C176.958328,166.000000 174.916672,166.000000 172.437500,166.000000 
z"/>
<path fill="#383838" opacity="1.000000" stroke="none" 
	d="
M185.066071,47.865204 
	C185.153503,48.198685 185.240936,48.532169 185.644928,49.307255 
	C186.961624,51.191406 187.961777,52.633953 188.961914,54.076500 
	C188.996429,54.573967 189.255554,55.339886 189.031036,55.527721 
	C186.550583,57.602886 176.062973,56.453285 174.028748,53.952347 
	C152.538498,27.531483 115.804619,27.541056 94.251060,53.867813 
	C93.186745,55.167828 91.097954,56.093819 89.380898,56.294933 
	C86.124550,56.676350 82.791779,56.405327 78.501625,56.405327 
	C79.902191,53.889080 80.965271,51.979149 82.389847,49.548546 
	C89.337486,42.748039 95.923637,36.468197 102.509789,30.188358 
	C111.436653,25.694082 120.741112,22.456358 130.821594,22.006811 
	C145.532166,21.350784 158.903366,25.338657 171.361664,34.177200 
	C172.185242,35.034512 172.579865,35.543892 172.957977,36.435455 
	C172.258072,43.337967 173.389847,45.424328 179.004608,48.003235 
	C178.998474,48.000507 178.991913,47.988743 179.087158,48.224606 
	C179.458969,48.643242 179.735550,48.826015 180.005859,49.005234 
	C179.999603,49.001675 179.993073,48.988918 180.049484,49.340240 
	C181.406479,49.698441 182.707047,49.705315 184.015381,49.365921 
	C184.069717,48.560375 184.116318,48.101105 184.387451,47.702793 
	C184.611969,47.763756 185.066071,47.865204 185.066071,47.865204 
z"/>
<path fill="#383838" opacity="1.000000" stroke="none" 
	d="
M189.244614,111.916702 
	C179.647827,130.743896 164.195663,141.520218 143.516144,144.953857 
	C128.654160,147.421539 114.822662,144.238373 101.380829,136.518555 
	C100.614166,135.787262 100.307220,135.393250 100.008392,134.820587 
	C100.016495,134.641953 99.996368,134.284882 100.262466,134.083282 
	C100.347549,132.539413 100.166527,131.197144 99.841454,129.586914 
	C98.516701,128.217590 97.335999,127.116219 95.968742,125.736458 
	C94.849205,124.964645 93.916229,124.471214 92.989441,123.990875 
	C92.995644,124.003975 93.024231,124.008682 92.985397,123.675003 
	C91.600220,123.220871 90.253891,123.100418 88.612083,122.979477 
	C87.725693,122.979874 87.134781,122.980759 86.280518,122.765198 
	C85.057877,121.602356 84.098587,120.655952 83.139290,119.709557 
	C81.667854,117.221832 80.196426,114.734108 78.831902,112.427139 
	C81.621346,111.956085 84.475281,111.406380 87.349930,111.005142 
	C91.318741,110.451157 93.628426,112.891724 95.954529,115.644226 
	C113.517807,136.427048 144.185745,139.510696 165.325150,122.557770 
	C168.411545,120.082611 170.862320,116.829361 173.779221,114.121445 
	C175.003845,112.984566 176.676254,112.330032 178.962311,111.511581 
	C182.934555,111.683533 186.089584,111.800117 189.244614,111.916702 
z"/>
<path fill="#3A3A3A" opacity="1.000000" stroke="none" 
	d="
M137.006409,84.969009 
	C140.826172,84.878181 144.645859,84.718880 148.465714,84.714676 
	C152.798737,84.709908 155.022171,82.489601 154.998459,78.307358 
	C154.974930,74.162155 152.842087,71.913223 148.447556,71.957222 
	C140.148254,72.040337 131.847534,71.981232 123.185654,71.981232 
	C123.185654,68.644966 123.185654,65.614082 123.185654,62.187740 
	C132.728622,62.187740 142.190582,61.781830 151.594727,62.343639 
	C157.026642,62.668148 160.365646,66.810814 162.048462,71.878967 
	C164.237213,78.470840 163.442810,84.696327 158.932678,90.161858 
	C158.005432,91.285538 156.614624,92.026695 155.464157,92.923363 
	C158.087021,97.508690 160.348251,101.461807 162.723969,105.615074 
	C153.590775,106.848709 153.576385,106.857086 149.540146,99.922096 
	C147.785492,96.907303 146.345428,93.501511 141.391785,94.073624 
	C139.661102,91.057556 138.330246,88.525787 137.000900,85.737762 
	C137.003738,85.310684 137.005081,85.139847 137.006409,84.969009 
z"/>
<path fill="#0B407C" opacity="1.000000" stroke="none" 
	d="
M182.133224,73.813599 
	C180.982681,69.287186 179.832138,64.760773 178.667786,60.180061 
	C195.227722,60.180061 211.764282,60.180061 229.144485,60.180061 
	C225.507904,64.879723 222.303146,69.021324 218.563110,73.517746 
	C216.026901,73.971458 214.025970,74.070358 211.683594,74.096939 
	C210.881760,74.077576 210.421371,74.130539 209.503983,74.085281 
	C200.075729,73.929237 191.104477,73.871414 182.133224,73.813599 
z"/>
<path fill="#0A3F7C" opacity="1.000000" stroke="none" 
	d="
M49.000751,74.002319 
	C48.852943,73.694504 48.635612,73.447968 48.092709,72.892540 
	C47.565277,72.333435 47.293900,72.144501 47.022526,71.955574 
	C47.022526,71.955574 46.995869,71.995979 46.974480,71.717773 
	C46.670376,71.225456 46.387661,71.011353 46.104950,70.797249 
	C43.660538,67.470543 41.216129,64.143837 38.650032,60.651531 
	C39.160500,60.373093 39.540302,59.985176 39.920963,59.984333 
	C55.410278,59.949871 70.899734,59.935375 86.388931,59.987709 
	C87.215210,59.990498 88.039459,60.594097 88.624130,61.457336 
	C88.308784,62.331863 88.233971,62.667053 88.159164,63.002239 
	C88.159164,63.002239 87.925392,63.366451 87.638962,63.756340 
	C87.234192,64.765556 87.115845,65.384895 86.997498,66.004227 
	C86.997498,66.004227 86.766701,66.209183 86.514053,66.589661 
	C86.157188,67.637573 86.052979,68.305016 85.948761,68.972458 
	C85.694740,69.461655 85.440712,69.950844 85.062332,70.951233 
	C84.969543,71.638878 85.001099,71.815331 85.032654,71.991783 
	C84.780975,72.504204 84.529289,73.016624 83.656616,73.746979 
	C71.690666,73.977386 60.345707,73.989853 49.000751,74.002319 
z"/>
<path fill="#F5F5F5" opacity="1.000000" stroke="none" 
	d="
M102.091248,30.089680 
	C95.923637,36.468197 89.337486,42.748039 82.455727,49.212799 
	C81.389336,49.060616 80.194824,48.233509 79.920616,48.470634 
	C78.688049,49.536514 77.680161,50.875683 76.658752,52.169579 
	C74.280312,55.182533 71.839592,56.176453 69.116173,52.570221 
	C67.173676,49.998058 67.833611,44.509628 70.910210,44.057835 
	C75.520897,43.380764 75.895981,39.498486 78.259026,37.205143 
	C82.542038,33.048470 86.767532,28.829456 90.919792,24.542276 
	C93.444366,21.935663 95.786736,19.152592 98.418816,16.216965 
	C99.689659,21.596537 100.681190,25.793768 102.091248,30.089680 
z"/>
<path fill="#F7F7F7" opacity="1.000000" stroke="none" 
	d="
M179.001221,143.998779 
	C179.830307,148.620987 175.784836,150.177063 173.287384,152.521027 
	C172.643738,153.125107 169.622314,152.527756 169.096329,151.645645 
	C168.028564,149.854980 166.840164,146.815933 167.655045,145.517883 
	C169.040070,143.311722 171.935242,142.053589 174.893890,139.885498 
	C175.403580,138.782791 175.953659,135.974243 177.631042,134.285172 
	C181.705124,130.182693 186.438797,126.743462 190.639511,122.755531 
	C193.175888,120.347649 195.212448,117.413284 197.473602,114.715485 
	C197.924377,114.986412 198.375153,115.257332 198.825928,115.528259 
	C198.567047,119.771545 199.969208,125.640976 197.721344,127.937057 
	C192.156448,133.621368 187.572250,140.754745 179.336853,143.712128 
	C178.624710,143.111374 178.320404,142.789215 178.016113,142.467041 
	C177.834976,142.676086 177.653839,142.885132 177.472717,143.094177 
	C177.982224,143.395721 178.491714,143.697250 179.001221,143.998779 
z"/>
<path fill="#0D74B9" opacity="1.000000" stroke="none" 
	d="
M56.170452,83.652298 
	C56.170452,83.652298 56.024433,83.263039 55.836460,82.921875 
	C55.496689,82.294777 55.258900,82.151451 54.935123,82.150734 
	C54.935123,82.150734 54.960686,82.059860 54.885624,81.803627 
	C54.543713,81.358368 54.276859,81.169350 54.010010,80.980331 
	C54.010014,80.980324 53.998436,80.999710 53.969074,80.729942 
	C53.658577,80.260231 53.377445,80.060280 53.096310,79.860336 
	C53.096310,79.860336 53.037392,79.968002 53.000782,79.573120 
	C51.548073,75.896729 54.390907,77.072861 55.450943,77.054550 
	C64.640030,76.895798 73.831757,76.889763 83.022697,76.838272 
	C83.233803,81.370972 83.444908,85.903664 83.682312,91.000885 
	C76.722534,91.000885 70.094597,91.460426 63.597569,90.739807 
	C61.460579,90.502785 59.662460,87.210480 57.370499,84.842239 
	C56.744564,84.130226 56.457508,83.891258 56.170452,83.652298 
z"/>
<path fill="#0D73B9" opacity="1.000000" stroke="none" 
	d="
M207.824539,87.924973 
	C207.014084,88.808846 206.203629,89.692719 204.720276,90.756859 
	C197.371292,90.955803 190.695190,90.974480 184.019104,90.993156 
	C184.019104,90.993156 184.003998,90.997246 183.957794,90.526894 
	C183.911591,85.817650 183.911591,81.578766 183.911591,76.736267 
	C192.747208,76.736267 200.855896,76.736267 209.309509,76.800804 
	C210.116867,76.814896 210.579315,76.764450 211.422485,76.825058 
	C213.107620,77.071037 214.412048,77.205956 215.716476,77.340866 
	C214.965302,78.732307 214.214142,80.123734 212.868332,81.745598 
	C210.790634,83.959007 209.307587,85.941986 207.824539,87.924973 
z"/>
<path fill="#393939" opacity="1.000000" stroke="none" 
	d="
M108.967392,91.993645 
	C108.967392,81.894180 108.967392,72.293076 108.967392,62.365105 
	C111.702858,62.365105 114.081795,62.365105 116.766464,62.365105 
	C116.766464,76.791016 116.766464,91.144005 116.766464,105.810867 
	C114.337563,105.810867 111.951691,105.810867 108.967392,105.810867 
	C108.967392,101.348923 108.967392,96.920464 108.967392,91.993645 
z"/>
<path fill="#FAFAFA" opacity="1.000000" stroke="none" 
	d="
M100.000282,134.999237 
	C100.307220,135.393250 100.614166,135.787262 101.032234,136.419434 
	C96.987099,140.404953 92.830833,144.152313 88.283852,147.606079 
	C86.928452,146.874802 85.963768,146.437088 84.999084,145.999390 
	C85.257523,144.393921 85.515961,142.788467 85.767296,141.181946 
	C78.130524,136.309311 78.046791,133.065933 85.363464,127.316170 
	C85.978569,126.832787 86.424629,126.134293 87.321228,125.314423 
	C91.795578,128.395157 95.897926,131.697189 100.000282,134.999237 
z"/>
<path fill="#39AADA" opacity="1.000000" stroke="none" 
	d="
M179.939224,102.983727 
	C179.939224,102.983727 180.126877,102.669434 180.364151,102.328964 
	C180.676758,101.655762 180.752106,101.323044 180.827438,100.990318 
	C180.827438,100.990318 181.000443,100.543861 181.269775,100.069496 
	C181.951324,98.050209 182.363541,96.505287 182.775757,94.960365 
	C183.020432,94.691772 183.265091,94.423180 184.203018,94.084129 
	C189.330750,94.019402 193.772400,93.887451 198.195114,94.118431 
	C199.450928,94.184021 200.651505,95.306999 201.877411,95.945068 
	C201.877411,95.945068 201.966064,95.983948 201.700211,96.030113 
	C201.281174,96.378639 201.127991,96.680992 200.974808,96.983345 
	C200.974808,96.983345 201.000504,96.999748 200.757202,97.082184 
	C200.367584,97.454445 200.221268,97.744278 200.074951,98.034119 
	C200.074966,98.034119 200.002670,98.009132 199.737793,98.159439 
	C198.952576,99.182426 198.432251,100.055107 197.911926,100.927795 
	C197.911926,100.927795 197.966110,101.009407 197.709412,101.054352 
	C197.306671,101.400734 197.160599,101.702171 197.014542,102.003616 
	C197.014542,102.003616 196.998718,101.999664 196.765076,102.088165 
	C196.239700,102.379059 196.068130,102.655922 196.016739,103.007271 
	C195.740799,103.225403 195.464874,103.443535 194.888321,104.054016 
	C194.340851,104.943977 194.093979,105.441582 193.847107,105.939178 
	C193.534760,106.056702 193.300781,106.263069 192.821472,106.854477 
	C192.193024,107.322830 192.007507,107.580780 191.941269,107.924507 
	C191.941269,107.924507 191.956696,108.000313 191.481903,107.952682 
	C186.984818,107.969788 182.962555,108.034538 178.940277,108.099289 
	C178.940277,108.099289 178.933609,108.018517 178.904419,107.688492 
	C178.863449,106.899063 178.851669,106.439674 179.006012,105.698288 
	C179.427826,104.605438 179.683517,103.794586 179.939224,102.983727 
z"/>
<path fill="#F4F4F3" opacity="1.000000" stroke="none" 
	d="
M172.974503,36.053272 
	C172.579865,35.543892 172.185242,35.034512 171.716019,34.294357 
	C175.129776,30.233543 178.156036,25.736633 182.305801,22.861111 
	C184.313339,21.470020 188.954269,22.199701 191.465439,23.623095 
	C194.916016,25.578966 197.884903,28.801281 200.295700,32.048531 
	C202.378494,34.853970 200.403610,37.277599 197.350174,38.939690 
	C197.000000,39.000000 197.002441,39.002247 197.002441,39.002247 
	C196.093155,35.784847 193.927109,36.655930 192.548325,38.136051 
	C189.922241,40.955162 187.733414,44.181599 185.214554,47.552055 
	C185.066071,47.865204 184.611969,47.763756 184.312256,47.385674 
	C182.093567,44.639282 180.174606,42.270973 178.562149,39.756897 
	C180.473236,39.735401 182.212265,40.301052 183.645996,39.864372 
	C185.193665,39.392982 187.356323,38.169804 187.610458,36.936565 
	C187.915665,35.455421 186.689774,33.489403 185.730118,31.986647 
	C185.231613,31.205992 183.878632,30.970984 182.911652,30.489487 
	C183.244659,30.045290 183.577682,29.601093 183.910690,29.156897 
	C186.319855,31.051086 188.729004,32.945278 191.970291,35.493725 
	C192.988892,35.493725 195.323883,35.493725 198.885529,35.493725 
	C196.666214,33.180592 194.914764,31.771280 193.692688,29.997293 
	C190.893524,25.933992 186.554306,24.482258 182.852844,26.545231 
	C179.230362,28.564190 174.330200,30.953882 174.769440,36.770332 
	C173.988464,36.481781 173.481476,36.267525 172.974503,36.053272 
z"/>
<path fill="#2FA9DC" opacity="1.000000" stroke="none" 
	d="
M84.974869,97.980743 
	C85.979988,101.049591 86.985100,104.118439 87.992905,107.195496 
	C78.166542,109.769051 74.131561,108.052994 67.951546,98.266251 
	C67.498711,97.476738 67.219246,97.263733 66.939781,97.050720 
	C66.939781,97.050720 66.995308,97.000916 67.076912,96.629211 
	C70.899925,95.838554 74.662415,94.983856 78.374855,95.163483 
	C80.615059,95.271896 82.777496,96.987381 84.974869,97.980743 
z"/>
<path fill="#333333" opacity="1.000000" stroke="none" 
	d="
M136.999390,85.994019 
	C138.330246,88.525787 139.661102,91.057556 140.997528,93.922729 
	C137.882858,94.437637 134.762619,94.619141 131.101852,94.832100 
	C131.101852,98.302696 131.101852,101.835228 131.101852,106.069458 
	C128.681290,106.069458 126.785645,106.069458 124.450592,105.547882 
	C123.697044,102.357658 123.382927,99.689003 123.068802,97.020348 
	C123.020889,96.564224 122.972977,96.108101 123.375870,95.320984 
	C125.396172,93.927376 126.969742,92.870705 128.534302,91.800850 
	C131.358841,89.869408 134.177994,87.930061 136.999390,85.994019 
z"/>
<path fill="#D5EFFB" opacity="1.000000" stroke="none" 
	d="
M83.058853,76.538345 
	C73.831757,76.889763 64.640030,76.895798 55.450943,77.054550 
	C54.390907,77.072861 51.548073,75.896729 53.051086,79.537964 
	C51.894962,78.129372 50.651928,76.361031 49.204826,74.297508 
	C60.345707,73.989853 71.690666,73.977386 83.499748,73.985703 
	C83.674255,74.750458 83.384636,75.494438 83.058853,76.538345 
z"/>
<path fill="#434343" opacity="1.000000" stroke="none" 
	d="
M137.000900,85.737762 
	C134.177994,87.930061 131.358841,89.869408 128.534302,91.800850 
	C126.969742,92.870705 125.396172,93.927376 123.462608,94.985443 
	C123.098557,91.737587 123.098557,88.494263 123.098557,84.734909 
	C127.473373,84.734909 131.856491,84.734909 136.623016,84.851959 
	C137.005081,85.139847 137.003738,85.310684 137.000900,85.737762 
z"/>
<path fill="#D1F2FD" opacity="1.000000" stroke="none" 
	d="
M208.964600,76.736267 
	C200.855896,76.736267 192.747208,76.736267 183.911591,76.736267 
	C183.911591,81.578766 183.911591,85.817650 183.956390,90.519524 
	C183.326797,89.745605 182.118637,88.527023 182.075439,87.268456 
	C181.930389,83.042809 182.200699,78.802917 182.222641,74.191032 
	C191.104477,73.871414 200.075729,73.929237 209.186935,74.345619 
	C201.254105,74.704178 193.181320,74.704178 185.108536,74.704178 
	C185.100357,75.134148 185.092178,75.564125 185.084000,75.994095 
	C187.472107,75.994095 189.862823,75.922073 192.247803,76.008560 
	C197.821533,76.210670 203.392502,76.488876 208.964600,76.736267 
z"/>
<path fill="#F8F8F8" opacity="1.000000" stroke="none" 
	d="
M84.631622,145.995544 
	C85.963768,146.437088 86.928452,146.874802 87.947021,147.656860 
	C85.434441,151.837204 82.627167,151.166946 79.855835,148.323349 
	C76.398842,144.776199 72.598419,141.361252 73.514648,135.323563 
	C74.500023,134.999084 75.250771,134.998932 76.001526,134.998779 
	C75.643494,141.002350 78.951523,144.250397 84.631622,145.995544 
z"/>
<path fill="#3E3E3E" opacity="1.000000" stroke="none" 
	d="
M100.008392,134.820587 
	C95.897926,131.697189 91.795578,128.395157 87.380295,124.961914 
	C87.091652,124.530785 87.014442,124.259781 86.647972,123.713867 
	C86.460205,123.410049 86.543861,122.981636 86.543861,122.981636 
	C87.134781,122.980759 87.725693,122.979874 88.854675,123.257889 
	C90.603241,123.694092 91.813736,123.851387 93.024231,124.008682 
	C93.024231,124.008682 92.995644,124.003975 93.137512,124.291260 
	C94.238022,125.057304 95.196663,125.536072 96.155296,126.014839 
	C97.335999,127.116219 98.516701,128.217590 99.839935,130.028473 
	C99.987099,131.920288 99.991737,133.102585 99.996368,134.284882 
	C99.996368,134.284882 100.016495,134.641953 100.008392,134.820587 
z"/>
<path fill="#D1F2FD" opacity="1.000000" stroke="none" 
	d="
M202.177612,95.772583 
	C200.651505,95.306999 199.450928,94.184021 198.195114,94.118431 
	C193.772400,93.887451 189.330750,94.019402 184.431168,93.934845 
	C183.976135,93.140404 183.986221,92.424797 184.007706,91.351166 
	C190.695190,90.974480 197.371292,90.955803 204.511841,90.975464 
	C204.143448,92.542564 203.310623,94.071335 202.177612,95.772583 
z"/>
<path fill="#D1E5E5" opacity="1.000000" stroke="none" 
	d="
M178.954300,108.414261 
	C182.962555,108.034538 186.984818,107.969788 191.463318,107.917198 
	C191.196381,109.137108 190.473236,110.344864 189.497345,111.734665 
	C186.089584,111.800117 182.934555,111.683533 179.337845,111.406578 
	C178.920212,110.407219 178.944260,109.568222 178.954300,108.414261 
z"/>
<path fill="#FAFAFA" opacity="1.000000" stroke="none" 
	d="
M86.280518,122.765198 
	C86.543861,122.981636 86.460205,123.410049 86.450760,123.628067 
	C84.350662,125.147980 82.260025,126.449883 80.169235,127.751526 
	C79.245407,125.458214 79.245407,125.458214 82.991486,120.048119 
	C84.098587,120.655952 85.057877,121.602356 86.280518,122.765198 
z"/>
<path fill="#61B0D2" opacity="1.000000" stroke="none" 
	d="
M85.024673,97.561493 
	C82.777496,96.987381 80.615059,95.271896 78.374855,95.163483 
	C74.662415,94.983856 70.899925,95.838554 67.047043,96.654388 
	C66.309456,96.364830 65.683342,95.678375 64.062881,93.901772 
	C71.085907,93.901772 76.940125,93.776718 82.776176,94.045738 
	C83.588135,94.083168 84.310593,96.062088 85.024673,97.561493 
z"/>
<path fill="#FAFAFA" opacity="1.000000" stroke="none" 
	d="
M76.041473,134.639038 
	C75.250771,134.998932 74.500023,134.999084 73.373871,134.998993 
	C73.453087,133.445374 73.907684,131.891983 74.899467,130.060959 
	C75.710686,129.583511 75.898445,129.321793 75.999931,128.998169 
	C76.646790,129.491516 77.915718,130.162018 77.834290,130.447922 
	C77.454018,131.783157 76.701118,133.012268 76.041473,134.639038 
z"/>
<path fill="#434343" opacity="1.000000" stroke="none" 
	d="
M122.943634,97.368210 
	C123.382927,99.689003 123.697044,102.357658 124.011826,105.456436 
	C123.614487,103.163063 123.216476,100.439568 122.943634,97.368210 
z"/>
<path fill="#F4F4F3" opacity="1.000000" stroke="none" 
	d="
M189.111938,53.742210 
	C187.961777,52.633953 186.961624,51.191406 185.881683,49.423943 
	C190.943680,47.332561 190.287354,50.222065 189.111938,53.742210 
z"/>
<path fill="#D1F2FD" opacity="1.000000" stroke="none" 
	d="
M215.895325,77.035217 
	C214.412048,77.205956 213.107620,77.071037 211.641983,76.619072 
	C212.373459,76.099739 213.266144,75.897446 214.276596,75.668472 
	C213.463440,75.127022 212.744247,74.648140 212.025055,74.169250 
	C214.025970,74.070358 216.026901,73.971458 218.453735,73.833481 
	C217.944489,74.772789 217.009323,75.751175 215.895325,77.035217 
z"/>
<path fill="#D1F2FD" opacity="1.000000" stroke="none" 
	d="
M208.167862,87.832947 
	C209.307587,85.941986 210.790634,83.959007 212.610596,81.914589 
	C211.468735,83.815742 209.989960,85.778328 208.167862,87.832947 
z"/>
<path fill="#D1F2FD" opacity="1.000000" stroke="none" 
	d="
M182.423370,95.054855 
	C182.363541,96.505287 181.951324,98.050209 181.289749,99.830917 
	C181.383911,98.427589 181.727448,96.788467 182.423370,95.054855 
z"/>
<path fill="#D1F2FD" opacity="1.000000" stroke="none" 
	d="
M179.599609,103.042427 
	C179.683517,103.794586 179.427826,104.605438 178.794739,105.711433 
	C178.417374,106.006569 177.993958,106.028122 177.993958,106.028122 
	C178.415985,105.052460 178.837997,104.076790 179.599609,103.042427 
z"/>
<path fill="#D1F2FD" opacity="1.000000" stroke="none" 
	d="
M198.261795,100.909302 
	C198.432251,100.055107 198.952576,99.182426 199.760742,98.190033 
	C199.569595,99.010490 199.090622,99.950653 198.261795,100.909302 
z"/>
<path fill="#F4F4F3" opacity="1.000000" stroke="none" 
	d="
M192.537811,42.388836 
	C192.653229,41.942169 192.934479,41.668430 193.233627,41.415859 
	C193.241302,41.409382 193.444916,41.634960 193.557144,41.752308 
	C193.273422,42.023052 192.989700,42.293797 192.537811,42.388836 
z"/>
<path fill="#F4F4F3" opacity="1.000000" stroke="none" 
	d="
M196.998871,38.998802 
	C196.696487,39.506844 196.395233,40.016087 196.093964,40.525337 
	C195.885239,40.344425 195.676514,40.163509 195.467804,39.982594 
	C195.790207,39.679020 196.112610,39.375450 196.718719,39.037064 
	C197.002441,39.002247 197.000000,39.000000 196.998871,38.998802 
z"/>
<path fill="#D5EFFB" opacity="1.000000" stroke="none" 
	d="
M87.258621,65.815964 
	C87.115845,65.384895 87.234192,64.765556 87.624275,63.972229 
	C87.770592,64.408058 87.645172,65.017876 87.258621,65.815964 
z"/>
<path fill="#D5EFFB" opacity="1.000000" stroke="none" 
	d="
M86.226562,68.757576 
	C86.052979,68.305016 86.157188,67.637573 86.522049,66.743774 
	C86.689919,67.192513 86.597137,67.867607 86.226562,68.757576 
z"/>
<path fill="#D1E5E5" opacity="1.000000" stroke="none" 
	d="
M177.987244,106.327988 
	C177.993958,106.028122 178.417374,106.006569 178.628632,105.993423 
	C178.851669,106.439674 178.863449,106.899063 178.866837,107.703674 
	C178.565826,107.575218 178.273178,107.101540 177.987244,106.327988 
z"/>
<path fill="#D1F2FD" opacity="1.000000" stroke="none" 
	d="
M194.122238,105.838455 
	C194.093979,105.441582 194.340851,104.943977 194.844879,104.324585 
	C194.867157,104.714447 194.632263,105.226089 194.122238,105.838455 
z"/>
<path fill="#D5EFFB" opacity="1.000000" stroke="none" 
	d="
M46.156433,71.063766 
	C46.387661,71.011353 46.670376,71.225456 46.997570,71.710594 
	C46.764004,71.764519 46.485958,71.547401 46.156433,71.063766 
z"/>
<path fill="#D5EFFB" opacity="1.000000" stroke="none" 
	d="
M85.203873,71.926132 
	C85.001099,71.815331 84.969543,71.638878 85.075363,71.231262 
	C85.339554,71.189926 85.488098,71.370201 85.578613,71.575989 
	C85.602562,71.630447 85.447792,71.763519 85.203873,71.926132 
z"/>
<path fill="#D1F2FD" opacity="1.000000" stroke="none" 
	d="
M196.249329,102.920090 
	C196.068130,102.655922 196.239700,102.379059 196.768005,102.096046 
	C196.949142,102.363869 196.774918,102.636368 196.249329,102.920090 
z"/>
<path fill="#D5EFFB" opacity="1.000000" stroke="none" 
	d="
M47.080948,72.197060 
	C47.293900,72.144501 47.565277,72.333435 47.872272,72.776855 
	C47.565350,72.945709 47.309174,72.748108 47.080948,72.197060 
z"/>
<path fill="#D5EFFB" opacity="1.000000" stroke="none" 
	d="
M88.370888,62.857105 
	C88.233971,62.667053 88.308784,62.331863 88.624527,61.877525 
	C88.771179,62.076237 88.676895,62.394104 88.370888,62.857105 
z"/>
<path fill="#D5EFFB" opacity="1.000000" stroke="none" 
	d="
M53.146408,80.119583 
	C53.377445,80.060280 53.658577,80.260231 53.979317,80.725952 
	C53.744781,80.787430 53.470646,80.583138 53.146408,80.119583 
z"/>
<path fill="#D5EFFB" opacity="1.000000" stroke="none" 
	d="
M54.064583,81.219025 
	C54.276859,81.169350 54.543713,81.358368 54.838501,81.800980 
	C54.530197,81.964722 54.281105,81.765778 54.064583,81.219025 
z"/>
<path fill="#F8F8F8" opacity="1.000000" stroke="none" 
	d="
M75.780548,129.106812 
	C75.898445,129.321793 75.710686,129.583511 75.216873,129.891541 
	C75.099586,129.676819 75.287605,129.415390 75.780548,129.106812 
z"/>
<path fill="#D5EFFB" opacity="1.000000" stroke="none" 
	d="
M54.994911,82.345261 
	C55.258900,82.151451 55.496689,82.294777 55.670300,82.796967 
	C55.409882,82.949333 55.197411,82.791519 54.994911,82.345261 
z"/>
<path fill="#D5EFFB" opacity="1.000000" stroke="none" 
	d="
M56.209526,83.944183 
	C56.457508,83.891258 56.744564,84.130226 57.091011,84.651154 
	C56.849800,84.700760 56.549198,84.468414 56.209526,83.944183 
z"/>
<path fill="#D1F2FD" opacity="1.000000" stroke="none" 
	d="
M201.212738,96.882553 
	C201.127991,96.680992 201.281174,96.378639 201.679016,95.986588 
	C201.766006,96.191856 201.608337,96.486809 201.212738,96.882553 
z"/>
<path fill="#61B0D2" opacity="1.000000" stroke="none" 
	d="
M67.004875,97.304337 
	C67.219246,97.263733 67.498711,97.476738 67.813858,97.960373 
	C67.589691,98.006645 67.329826,97.782295 67.004875,97.304337 
z"/>
<path fill="#D1F2FD" opacity="1.000000" stroke="none" 
	d="
M200.295547,97.925690 
	C200.221268,97.744278 200.367584,97.454445 200.747986,97.069756 
	C200.944077,97.320595 200.788773,97.601387 200.295547,97.925690 
z"/>
<path fill="#D1F2FD" opacity="1.000000" stroke="none" 
	d="
M180.618195,101.149460 
	C180.752106,101.323044 180.676758,101.655762 180.390106,102.147789 
	C180.255508,101.974266 180.332230,101.641434 180.618195,101.149460 
z"/>
<path fill="#D1F2FD" opacity="1.000000" stroke="none" 
	d="
M197.245560,101.898026 
	C197.160599,101.702171 197.306671,101.400734 197.694855,101.008011 
	C197.783524,101.208633 197.630051,101.500534 197.245560,101.898026 
z"/>
<path fill="#D1E5E5" opacity="1.000000" stroke="none" 
	d="
M192.182831,107.863373 
	C192.007507,107.580780 192.193024,107.322830 192.729767,107.074371 
	C192.912399,107.352867 192.733276,107.620918 192.182831,107.863373 
z"/>
<path fill="#C4C4C4" opacity="1.000000" stroke="none" 
	d="
M150.261047,164.638824 
	C150.009003,164.623978 149.871262,164.487900 149.733536,164.351837 
	C149.947479,164.407089 150.161423,164.462341 150.261047,164.638824 
z"/>
<path fill="#363637" opacity="1.000000" stroke="none" 
	d="
M178.255646,39.902664 
	C180.174606,42.270973 182.093567,44.639282 184.087738,47.324711 
	C184.116318,48.101105 184.069717,48.560375 183.673248,49.428761 
	C182.213287,49.554886 181.103180,49.271900 179.993073,48.988918 
	C179.993073,48.988918 179.999603,49.001675 179.915314,48.765911 
	C179.551331,48.349678 179.271622,48.169212 178.991913,47.988747 
	C178.991913,47.988743 178.998474,48.000507 178.978394,47.653702 
	C177.970261,46.057091 176.607452,44.944393 176.087524,43.523308 
	C175.414093,41.682705 175.412750,39.596218 175.419861,37.751614 
	C176.563675,38.559311 177.409653,39.230988 178.255646,39.902664 
z"/>
<path fill="#585859" opacity="1.000000" stroke="none" 
	d="
M175.122055,37.615589 
	C175.412750,39.596218 175.414093,41.682705 176.087524,43.523308 
	C176.607452,44.944393 177.970261,46.057091 178.984528,47.656429 
	C173.389847,45.424328 172.258072,43.337967 172.957977,36.435455 
	C173.481476,36.267525 173.988464,36.481781 174.814087,36.960526 
	C175.132751,37.225010 175.122055,37.615589 175.122055,37.615589 
z"/>
<path fill="#585859" opacity="1.000000" stroke="none" 
	d="
M180.049484,49.340240 
	C181.103180,49.271900 182.213287,49.554886 183.665512,49.775032 
	C182.707047,49.705315 181.406479,49.698441 180.049484,49.340240 
z"/>
<path fill="#585859" opacity="1.000000" stroke="none" 
	d="
M179.087158,48.224609 
	C179.271622,48.169212 179.551331,48.349678 179.921570,48.769470 
	C179.735550,48.826015 179.458969,48.643242 179.087158,48.224609 
z"/>
<path fill="#5E5E5E" opacity="1.000000" stroke="none" 
	d="
M92.985397,123.675003 
	C91.813736,123.851387 90.603241,123.694092 89.150146,123.258377 
	C90.253891,123.100418 91.600220,123.220871 92.985397,123.675003 
z"/>
<path fill="#5E5E5E" opacity="1.000000" stroke="none" 
	d="
M100.262466,134.083282 
	C99.991737,133.102585 99.987099,131.920288 99.983986,130.296432 
	C100.166527,131.197144 100.347549,132.539413 100.262466,134.083282 
z"/>
<path fill="#5E5E5E" opacity="1.000000" stroke="none" 
	d="
M95.968742,125.736458 
	C95.196663,125.536072 94.238022,125.057304 93.131317,124.278160 
	C93.916229,124.471214 94.849205,124.964645 95.968742,125.736458 
z"/>
<path fill="#F0FFFF" opacity="1.000000" stroke="none" 
	d="
M211.683594,74.096939 
	C212.744247,74.648140 213.463440,75.127022 214.276596,75.668472 
	C213.266144,75.897446 212.373459,76.099739 211.261261,76.508011 
	C210.579315,76.764450 210.116867,76.814896 209.309509,76.800804 
	C203.392502,76.488876 197.821533,76.210670 192.247803,76.008560 
	C189.862823,75.922073 187.472107,75.994095 185.084000,75.994095 
	C185.092178,75.564125 185.100357,75.134148 185.108536,74.704178 
	C193.181320,74.704178 201.254105,74.704178 209.643936,74.443840 
	C210.421371,74.130539 210.881760,74.077576 211.683594,74.096939 
z"/>
<path fill="#FDFEFE" opacity="1.000000" stroke="none" 
	d="
M179.000610,143.999390 
	C178.491714,143.697250 177.982224,143.395721 177.472717,143.094177 
	C177.653839,142.885132 177.834976,142.676086 178.016113,142.467041 
	C178.320404,142.789215 178.624710,143.111374 178.963898,143.717377 
	C178.998779,144.001221 179.000000,144.000000 179.000610,143.999390 
z"/>
<path fill="#FDFDFD" opacity="1.000000" stroke="none" 
	d="
M175.419861,37.751614 
	C175.122055,37.615589 175.132751,37.225010 175.088089,37.034821 
	C174.330200,30.953882 179.230362,28.564190 182.852844,26.545231 
	C186.554306,24.482258 190.893524,25.933992 193.692688,29.997293 
	C194.914764,31.771280 196.666214,33.180592 198.885529,35.493725 
	C195.323883,35.493725 192.988892,35.493725 191.970291,35.493725 
	C188.729004,32.945278 186.319855,31.051086 183.910690,29.156897 
	C183.577682,29.601093 183.244659,30.045290 182.911652,30.489487 
	C183.878632,30.970984 185.231613,31.205992 185.730118,31.986647 
	C186.689774,33.489403 187.915665,35.455421 187.610458,36.936565 
	C187.356323,38.169804 185.193665,39.392982 183.645996,39.864372 
	C182.212265,40.301052 180.473236,39.735401 178.562149,39.756897 
	C177.409653,39.230988 176.563675,38.559311 175.419861,37.751614 
z"/>
</svg>